<?xml version="1.0" encoding="UTF-8" standalone="no"?>
<!-- Creator: CorelDRAW X5 -->

<svg
   xmlns:dc="http://purl.org/dc/elements/1.1/"
   xmlns:cc="http://creativecommons.org/ns#"
   xmlns:rdf="http://www.w3.org/1999/02/22-rdf-syntax-ns#"
   xmlns:svg="http://www.w3.org/2000/svg"
   xmlns="http://www.w3.org/2000/svg"
   xmlns:sodipodi="http://sodipodi.sourceforge.net/DTD/sodipodi-0.dtd"
   xmlns:inkscape="http://www.inkscape.org/namespaces/inkscape"
   xml:space="preserve"
   style="shape-rendering:geometricPrecision; text-rendering:geometricPrecision; image-rendering:optimizeQuality; fill-rule:evenodd; clip-rule:evenodd"
   viewBox="0 0 7493 5700"
   id="svg2"
   version="1.1"
   inkscape:version="0.48.4 r9939"
   width="100%"
   height="100%"
   sodipodi:docname="headphones.svg"><sodipodi:namedview
     pagecolor="#ffffff"
     bordercolor="#666666"
     borderopacity="1"
     objecttolerance="10"
     gridtolerance="10"
     guidetolerance="10"
     inkscape:pageopacity="0"
     inkscape:pageshadow="2"
     inkscape:window-width="1440"
     inkscape:window-height="826"
     id="namedview14"
     showgrid="false"
     inkscape:zoom="0.041403509"
     inkscape:cx="3794.8051"
     inkscape:cy="2850"
     inkscape:window-x="0"
     inkscape:window-y="25"
     inkscape:window-maximized="1"
     inkscape:current-layer="svg2" /><defs
     id="defs4"><style
       type="text/css"
       id="style6">
   
    .fil0 {fill:black}
   
  </style></defs><g
     id="Layer_x0020_1"
     style="fill:#ffffff"><metadata
       id="CorelCorpID_0Corel-Layer" /><path
       class="fil0"
       d="M1522 3175c77,15 152,37 224,66l0 2369c-146,58 -305,90 -471,90 -704,0 -1275,-571 -1275,-1275 0,-620 442,-1136 1028,-1251 0,-10 0,-18 0,-24 0,-861 300,-1644 784,-2213 493,-580 1177,-938 1935,-938 758,0 1441,359 1935,938 484,569 784,1351 784,2213 0,6 0,14 0,24 586,115 1028,631 1028,1251 0,704 -571,1275 -1275,1275 -166,0 -325,-32 -471,-90l0 -2369c72,-29 147,-51 224,-66l0 -24c0,-743 -254,-1412 -664,-1894 -401,-471 -953,-763 -1560,-763 -608,0 -1159,291 -1560,763 -410,482 -664,1151 -664,1894l0 24z"
       id="path10"
       style="fill:#ffffff" /></g><metadata
     id="metadata12"><rdf:RDF><cc:Work><dc:format>image/svg+xml</dc:format><dc:type
           rdf:resource="http://purl.org/dc/dcmitype/StillImage" /><cc:license
           rdf:resource="http://creativecommons.org/licenses/publicdomain/" /><dc:publisher><cc:Agent
             rdf:about="http://openclipart.org/"><dc:title>Openclipart</dc:title></cc:Agent></dc:publisher><dc:title></dc:title></cc:Work><cc:License
         rdf:about="http://creativecommons.org/licenses/publicdomain/"><cc:permits
           rdf:resource="http://creativecommons.org/ns#Reproduction" /><cc:permits
           rdf:resource="http://creativecommons.org/ns#Distribution" /><cc:permits
           rdf:resource="http://creativecommons.org/ns#DerivativeWorks" /></cc:License></rdf:RDF></metadata></svg>